# xmcd
#
# Track frame offsets: 
#        150
#        19122
#        31986
#        45497
#        60790
#        74904
#        87670
#        98334
#        113323
#        133005
#        146033
#        157947
#        170337
#        191988
#        204884
#
# Disc length: 2926 seconds
#
# Revision: 0
# Processed by: cddbd v1.5.2PL0 Copyright (c) Steve Scherf et al.
# Submitted via: ExactAudioCopyFreeDBPlugin 1.0
#
DISCID=c20b6c0f
DTITLE=Various Artist - Faith, Hope and Country - God Bless America - D
DTITLE=isc 2
DYEAR=2016
DGENRE=Country
TTITLE0=Glen Campbell - What A Friend We Have In Jesus
TTITLE1=Anne Murray - Go Tell It On The Mountain
TTITLE2=The Statler Brothers - How Great Thou Art
TTITLE3=George Strait - I Saw God Today
TTITLE4=Glen Campbell with Steve Wariner - The Hand That Rocks The Cra
TTITLE4=dle
TTITLE5=Patsy Cline - Just A Closer Walk With Thee
TTITLE6=Tennessee Ernie Ford - Wayfaring Pilgrim
TTITLE7=Merle Haggard and The Strangers feat. The Carter Family - Take M
TTITLE7=y Hand, Precious Lord - Jesus Hold My Hand
TTITLE8=Glen Campbell - Amazing Grace
TTITLE9=Patsy Cline - Life's Railway To Heaven
TTITLE10=Tennessee Ernie Ford - Rock Of Ages
TTITLE11=Hank Williams, Jr. - I Saw The Light
TTITLE12=Steve Wariner - Holes In The Floor Of Heaven
TTITLE13=Glen Campbell - I Knew Jesus (Before He Was A Star)
TTITLE14=Cristy Lane - One Day At A Time
EXTD=
EXTT0=
EXTT1=
EXTT2=
EXTT3=
EXTT4=
EXTT5=
EXTT6=
EXTT7=
EXTT8=
EXTT9=
EXTT10=
EXTT11=
EXTT12=
EXTT13=
EXTT14=
PLAYORDER=
